<?xml version="1.0" encoding="UTF-8"?>
<svg width="119px" height="54px" viewBox="0 0 119 54" version="1.1" xmlns="http://www.w3.org/2000/svg" xmlns:xlink="http://www.w3.org/1999/xlink">
    <title>DACE30F1-F2CC-4B13-A91C-1692DFFFE72A@1x</title>
    <defs>
        <filter id="filter-1">
            <feColorMatrix in="SourceGraphic" type="matrix" values="0 0 0 0 1.000000 0 0 0 0 1.000000 0 0 0 0 1.000000 0 0 0 1.000000 0"></feColorMatrix>
        </filter>
        <filter id="filter-2">
            <feColorMatrix in="SourceGraphic" type="matrix" values="0 0 0 0 0.437370 0 0 0 0 0.370484 0 0 0 0 1.000000 0 0 0 1.000000 0"></feColorMatrix>
        </filter>
        <linearGradient x1="0%" y1="49.9837274%" x2="104.918478%" y2="49.9837274%" id="linearGradient-3">
            <stop stop-color="#EB4EE6" offset="0%"></stop>
            <stop stop-color="#5733F5" offset="47.9985525%"></stop>
            <stop stop-color="#4EEBC0" offset="100%"></stop>
        </linearGradient>
    </defs>
    <g id="Page-1" stroke="none" stroke-width="1" fill="none" fill-rule="evenodd">
        <g id="c_text-block/1440px/default" transform="translate(-598.000000, -45.000000)">
            <g id="Icon" transform="translate(600.000000, 47.000000)">
                <g filter="url(#filter-1)" id="Group-23">
                    <g transform="translate(10.000000, 10.000000)">
                        <g id="Group-25">
                            <ellipse id="Oval" stroke="#000000" stroke-width="2" cx="16.0683761" cy="16" rx="15.0683761" ry="15"></ellipse>
                            <ellipse id="Oval" stroke="#000000" stroke-width="2" cx="15.6666667" cy="15.6" rx="7.43589744" ry="14.6"></ellipse>
                            <rect id="Rectangle" fill="#000000" x="0.803418803" y="15.2" width="31.3333333" height="1.6"></rect>
                            <polygon id="Rectangle" fill="#000000" transform="translate(15.666667, 16.000000) rotate(90.000000) translate(-15.666667, -16.000000) " points="0.0666666667 15.1965812 31.2666667 15.1965812 31.2666667 16.8034188 0.0666666667 16.8034188"></polygon>
                        </g>
                        <g filter="url(#filter-2)" id="Group-24">
                            <g transform="translate(61.863248, 0.000000)">
                                <rect id="Rectangle-Copy-22" fill="#000000" x="0.803418803" y="15.2" width="31.3333333" height="1.6"></rect>
                                <rect id="Rectangle-Copy-2" fill="#000000" transform="translate(16.470085, 16.000000) rotate(90.000000) translate(-16.470085, -16.000000) " x="0.87008547" y="15.1965812" width="31.2" height="1.60683761"></rect>
                                <ellipse id="Oval-Copy-9" stroke="#705EFF" stroke-width="2" cx="16.4700855" cy="15.6" rx="7.43589744" ry="14.6"></ellipse>
                                <ellipse id="Oval-Copy-8" stroke="#705EFF" stroke-width="2" cx="16.0683761" cy="16" rx="15.0683761" ry="15"></ellipse>
                            </g>
                        </g>
                    </g>
                </g>
                <path d="M25.1056338,0 C43.0203883,0 51.4260563,12.9032258 57.5,25 C51.4260563,36.2903226 43.0203883,50 25.1056338,50 C11.2401751,50 0,38.8071187 0,25 C0,11.1928813 11.2401751,0 25.1056338,0 Z M89.8943662,0 C103.759825,0 115,11.1928813 115,25 C115,38.8071187 103.759825,50 89.8943662,50 C71.9796117,50 63.5739437,36.2903226 57.5,25 C63.5739437,12.9032258 71.9796117,0 89.8943662,0 Z" id="Combined-Shape" stroke="url(#linearGradient-3)" stroke-width="3"></path>
            </g>
        </g>
    </g>
</svg>